# xmcd
#
# Track frame offsets:
# 150
# 41312
# 75485
# 112547
# 145415
# 187522
# 228088
# 258774
#
# Disc length: 4035 seconds
#
#
# Revision: 0
# Processed by: cddbd v1.5.2PL0 Copyright (c) Steve Scherf et al.
# Submitted via: FreeRIP 2.96 
#
DISCID=490fc108
DTITLE=Lisa See - Der Seidenfächer CD6v6
DYEAR=2006
DGENRE=Hörbuch
TTITLE0=45 Am 15. Tag des achten Mondmonats ...
TTITLE1=46 Du kanntest einst mein Herz, jetzt kennst du ...
TTITLE2=47 Ein Jahr verging. Der Tag des Sitzen ...
TTITLE3=48 Ich loeste mich von meinem eigene Schmerz ...
TTITLE4=49  In den Wolken. Acht Jahre vergingen.
TTITLE5=50 Uns blieben nur zwei Wochen. Ich verliess ...
TTITLE6=51 Drei Tage spaeter trugen der Metzger ...
TTITLE7=52 Stillsitzen, Reue. Ich bin jetzt zu alt ...
EXTD=gelesen von Judy Winter
EXTT0=
EXTT1=
EXTT2=
EXTT3=
EXTT4=
EXTT5=
EXTT6=
EXTT7=
PLAYORDER=
